# xmcd
#
# Track frame offsets:
#	150
#	15641
#	34081
#	52846
#	68951
#	86956
#	103265
#	116109
#	133392
#	147169
#	157383
#	172372
#	188850
#	201803
#	221778
#	240246
#	259737
#	280038
#	297661
#	317568
#	331540
#
# Disc length: 4433 seconds
#
# Revision: 1
# Processed by: cddbd v1.5.2PL0 Copyright (c) Steve Scherf et al.
# Submitted via: audiograbber 1.83.01
#
DISCID=4d114f15
DTITLE=Jeffrey Backus - Beer And Other Influences
DYEAR=2015
DGENRE=Country
TTITLE0=Hell Yeah, I Like Beer
TTITLE1=Family Traditon
TTITLE2=In Colour
TTITLE3=Billy's Got His Beer Goggles On
TTITLE4=Run
TTITLE5=Do You Want Fries With That?
TTITLE6=Born To Boogie
TTITLE7=I Don't Even Know Her Name
TTITLE8=The Greatest
TTITLE9=Long Neck Bottle
TTITLE10=Choices
TTITLE11=I Love This Bar
TTITLE12=Yee Haw
TTITLE13=It's Hard To Kiss The Lips At Night That Chew Your Ass Out All Day Lon
TTITLE13=g
TTITLE14=Alcohol
TTITLE15=Murder On Music Row
TTITLE16=I Think I'll Just Stay Here And Drink
TTITLE17=To Make You Feel My Love
TTITLE18=Last Thing I Needed First Thing This Morning
TTITLE19=It Takes A Whole Lotta Liquor To Like Her
TTITLE20=Spoken
EXTD=
EXTT0=
EXTT1=
EXTT2=
EXTT3=
EXTT4=
EXTT5=
EXTT6=
EXTT7=
EXTT8=
EXTT9=
EXTT10=
EXTT11=
EXTT12=
EXTT13=
EXTT14=
EXTT15=
EXTT16=
EXTT17=
EXTT18=
EXTT19=
EXTT20=
PLAYORDER=
